<svg xmlns="http://www.w3.org/2000/svg" viewBox="0 0 400 300">
  <defs>
    <linearGradient id="bg" x1="0%" y1="0%" x2="100%" y2="100%">
      <stop offset="0%" style="stop-color:#667eea"/>
      <stop offset="100%" style="stop-color:#764ba2"/>
    </linearGradient>
  </defs>

  <!-- Background -->
  <rect width="400" height="300" fill="url(#bg)" rx="20"/>

  <!-- Book/Document -->
  <rect x="140" y="80" width="120" height="150" fill="white" rx="5"/>
  <rect x="150" y="100" width="80" height="8" fill="#e0e0e0" rx="2"/>
  <rect x="150" y="115" width="100" height="6" fill="#e0e0e0" rx="2"/>
  <rect x="150" y="128" width="90" height="6" fill="#e0e0e0" rx="2"/>
  <rect x="150" y="141" width="95" height="6" fill="#e0e0e0" rx="2"/>
  <rect x="150" y="160" width="60" height="20" fill="#667eea" rx="3"/>
  <rect x="150" y="190" width="100" height="6" fill="#e0e0e0" rx="2"/>
  <rect x="150" y="203" width="80" height="6" fill="#e0e0e0" rx="2"/>

  <!-- Maple Leaf (Canada) -->
  <path d="M320 60 L325 75 L340 75 L328 85 L333 100 L320 90 L307 100 L312 85 L300 75 L315 75 Z" fill="white" opacity="0.8"/>

  <!-- Checkmark Circle -->
  <circle cx="80" cy="220" r="30" fill="white" opacity="0.9"/>
  <path d="M65 220 L75 230 L95 210" stroke="#667eea" stroke-width="5" fill="none" stroke-linecap="round" stroke-linejoin="round"/>

  <!-- Stars -->
  <circle cx="50" cy="80" r="3" fill="white" opacity="0.6"/>
  <circle cx="350" cy="140" r="4" fill="white" opacity="0.5"/>
  <circle cx="70" cy="150" r="2" fill="white" opacity="0.7"/>
  <circle cx="330" cy="220" r="3" fill="white" opacity="0.6"/>

  <!-- Text area suggestion -->
  <text x="200" y="265" text-anchor="middle" fill="white" font-family="Arial, sans-serif" font-size="14" font-weight="bold" opacity="0.9">CELPIP Study Guide</text>
</svg>
